D:\school\WTK\thesis\model\3dpredictsim\Results\debug\Pog_s1_tmt_bCst_d00_k1000_ig24_act_TTC_IAT30_GRF.mot
nRows=25
nColumns=19

name D:\school\WTK\thesis\model\3dpredictsim\Results\debug\Pog_s1_tmt_bCst_d00_k1000_ig24_act_TTC_IAT30_GRF.mot
datacolumns 19
datarows 25
range 0.0000000000 0.2147381219
endheader
time 	ground_force_vx	ground_force_vy	ground_force_vz	ground_force_px	ground_force_py	ground_force_pz	1_ground_force_vx	1_ground_force_vy	1_ground_force_vz	1_ground_force_px	1_ground_force_py	1_ground_force_pz	ground_torque_x	ground_torque_y	ground_torque_z	1_ground_torque_x	1_ground_torque_y	1_ground_torque_z
        0.0000000000	      -30.5561847524	       92.4584196060	       85.9585737802	        0.1035953439	        0.0000000000	        0.1559607681	       88.6225059925	      350.9267414418	        6.3532686066	       -0.2281129001	        0.0000000000	       -0.1290336880	        0.0000000000	        0.0000000000	        0.0000000000	        0.0000000000	        0.0000000000	        0.0000000000	
        0.0089474217	        6.0396262551	      148.4580714614	       55.1025165947	        0.1081163383	        0.0000000000	        0.1532112572	       70.5059687895	      298.6810091614	        0.8264910105	       -0.2245162173	        0.0000000000	       -0.1282853414	        0.0000000000	        0.0000000000	        0.0000000000	        0.0000000000	        0.0000000000	        0.0000000000	
        0.0178948435	       28.6186243451	      233.7193653739	       32.2139517777	        0.1166886184	        0.0000000000	        0.1529128561	       49.1620902386	      238.0851943145	        8.1218354390	       -0.2245395735	        0.0000000000	       -0.1278784890	        0.0000000000	        0.0000000000	        0.0000000000	        0.0000000000	        0.0000000000	        0.0000000000	
        0.0268422652	       20.1495268861	      338.8654904170	      -10.4425105210	        0.1253867762	        0.0000000000	        0.1530078577	       39.4828265031	      184.4309390530	       -0.1631141527	       -0.2245520849	        0.0000000000	       -0.1284655264	        0.0000000000	        0.0000000000	        0.0000000000	        0.0000000000	        0.0000000000	        0.0000000000	
        0.0357896870	       10.0935925668	      436.4456847116	      -28.0757798363	        0.1351872873	        0.0000000000	        0.1526069851	       21.8707476459	      117.5285552779	        0.7888546842	       -0.2249264138	        0.0000000000	       -0.1284753907	        0.0000000000	        0.0000000000	        0.0000000000	        0.0000000000	        0.0000000000	        0.0000000000	
        0.0447371087	      -12.8547627924	      534.8906327640	      -48.6965729212	        0.1492499899	        0.0000000000	        0.1506236934	       -7.2874708345	       44.1418636847	        3.8995085018	       -0.2285986119	        0.0000000000	       -0.1277770316	        0.0000000000	        0.0000000000	        0.0000000000	        0.0000000000	        0.0000000000	        0.0000000000	
        0.0536845305	      -60.3288230776	      650.3317898791	      -61.1291567715	        0.1669013653	        0.0000000000	        0.1469494437	        0.5100227033	       -0.4741183719	       -0.2660157579	        0.0000000000	        0.0000000000	        0.0000000000	        0.0000000000	        0.0000000000	        0.0000000000	        0.0000000000	        0.0000000000	        0.0000000000	
        0.0626319522	      -76.8862735225	      642.5330238651	      -56.3215437896	        0.1689822467	        0.0000000000	        0.1463989604	       -0.4540464417	        0.3366811363	        0.2549765669	        0.0000000000	        0.0000000000	        0.0000000000	        0.0000000000	        0.0000000000	        0.0000000000	        0.0000000000	        0.0000000000	        0.0000000000	
        0.0715793740	      -75.4371550643	      683.1359676556	      -28.5700673525	        0.1854696309	        0.0000000000	        0.1437623980	       -5.6429024584	        3.4250997769	        2.8344268223	        0.0000000000	        0.0000000000	        0.0000000000	        0.0000000000	        0.0000000000	        0.0000000000	        0.0000000000	        0.0000000000	        0.0000000000	
        0.0805267957	      -76.9091642467	      688.1568480324	      -12.5584399040	        0.1929536095	        0.0000000000	        0.1423004542	       -0.2863934788	        0.1469189726	        0.1280719669	        0.0000000000	        0.0000000000	        0.0000000000	        0.0000000000	        0.0000000000	        0.0000000000	        0.0000000000	        0.0000000000	        0.0000000000	
        0.0894742175	      -74.6726145946	      679.9658977214	       -5.5155815034	        0.2001800849	        0.0000000000	        0.1409122692	       -6.3355803658	        3.0029073297	        2.6058626721	        0.0000000000	        0.0000000000	        0.0000000000	        0.0000000000	        0.0000000000	        0.0000000000	        0.0000000000	        0.0000000000	        0.0000000000	
        0.0984216392	      -71.2179499247	      654.2039800363	        1.8293992296	        0.2047235636	        0.0000000000	        0.1401826860	       -1.5676776055	        0.6837474761	        0.5735464151	        0.0000000000	        0.0000000000	        0.0000000000	        0.0000000000	        0.0000000000	        0.0000000000	        0.0000000000	        0.0000000000	        0.0000000000	
        0.1073690610	      -65.6081832886	      611.6464392737	        9.5688609011	        0.2065291335	        0.0000000000	        0.1402164682	       -0.0450894171	        0.0185577242	        0.0146257602	        0.0000000000	        0.0000000000	        0.0000000000	        0.0000000000	        0.0000000000	        0.0000000000	        0.0000000000	        0.0000000000	        0.0000000000	
        0.1163164827	      -60.9102363936	      577.7166731902	       11.6447301093	        0.2087757963	        0.0000000000	        0.1402036436	        0.0835912402	       -0.0329211260	       -0.0242681458	        0.0000000000	        0.0000000000	        0.0000000000	        0.0000000000	        0.0000000000	        0.0000000000	        0.0000000000	        0.0000000000	        0.0000000000	
        0.1252639045	      -57.9712853653	      551.7609386984	       10.3693726933	        0.2116281457	        0.0000000000	        0.1400661254	       -0.5105772357	        0.1981002824	        0.1333999906	        0.0000000000	        0.0000000000	        0.0000000000	        0.0000000000	        0.0000000000	        0.0000000000	        0.0000000000	        0.0000000000	        0.0000000000	
        0.1342113262	      -54.9437018490	      526.8093758409	        7.8436459749	        0.2138378669	        0.0000000000	        0.1401772416	       -0.5000738419	        0.1909532940	        0.1178497899	        0.0000000000	        0.0000000000	        0.0000000000	        0.0000000000	        0.0000000000	        0.0000000000	        0.0000000000	        0.0000000000	        0.0000000000	
        0.1431587480	      -50.8678556710	      507.0160207884	        3.3919366438	        0.2160634489	        0.0000000000	        0.1402571603	       -0.2954091402	        0.1108285163	        0.0632596432	        0.0000000000	        0.0000000000	        0.0000000000	        0.0000000000	        0.0000000000	        0.0000000000	        0.0000000000	        0.0000000000	        0.0000000000	
        0.1521061697	      -47.7728478001	      493.9243623624	       -0.8927715690	        0.2187564398	        0.0000000000	        0.1401477505	       -0.1765987448	        0.0653667313	        0.0338746614	        0.0000000000	        0.0000000000	        0.0000000000	        0.0000000000	        0.0000000000	        0.0000000000	        0.0000000000	        0.0000000000	        0.0000000000	
        0.1610535915	      -45.9576218434	      484.7250929705	       -4.9200250634	        0.2216630936	        0.0000000000	        0.1399644429	       -0.1173990942	        0.0430355768	        0.0197163789	        0.0000000000	        0.0000000000	        0.0000000000	        0.0000000000	        0.0000000000	        0.0000000000	        0.0000000000	        0.0000000000	        0.0000000000	
        0.1700010132	      -44.3367150811	      478.2319249729	       -8.8854389875	        0.2246999627	        0.0000000000	        0.1397494744	       -0.0899219045	        0.0327334039	        0.0129680414	        0.0000000000	        0.0000000000	        0.0000000000	        0.0000000000	        0.0000000000	        0.0000000000	        0.0000000000	        0.0000000000	        0.0000000000	
        0.1789484350	      -42.4773310210	      474.2318882796	      -12.8336011147	        0.2278454482	        0.0000000000	        0.1395119877	       -0.0819486433	        0.0296995879	        0.0098792414	        0.0000000000	        0.0000000000	        0.0000000000	        0.0000000000	        0.0000000000	        0.0000000000	        0.0000000000	        0.0000000000	        0.0000000000	
        0.1878958567	      -40.2179982054	      472.6235819181	      -16.6330279298	        0.2310839455	        0.0000000000	        0.1392588949	       -0.0916153240	        0.0331581730	        0.0088854585	        0.0000000000	        0.0000000000	        0.0000000000	        0.0000000000	        0.0000000000	        0.0000000000	        0.0000000000	        0.0000000000	        0.0000000000	
        0.1968432785	      -37.4960303401	      473.3648938725	      -20.1158488117	        0.2344108769	        0.0000000000	        0.1389945355	       -0.1267812945	        0.0459537521	        0.0094291317	        0.0000000000	        0.0000000000	        0.0000000000	        0.0000000000	        0.0000000000	        0.0000000000	        0.0000000000	        0.0000000000	        0.0000000000	
        0.2057907002	      -34.2784789524	      476.5002323000	      -23.1860879135	        0.2378391117	        0.0000000000	        0.1387177653	       -0.2081849213	        0.0756938483	        0.0110930151	        0.0000000000	        0.0000000000	        0.0000000000	        0.0000000000	        0.0000000000	        0.0000000000	        0.0000000000	        0.0000000000	        0.0000000000	
        0.2147381219	      -30.5625852312	      482.1079110616	      -25.8393440799	        0.2413966698	        0.0000000000	        0.1384218303	       -0.3645565161	        0.1330535584	        0.0121067345	        0.0000000000	        0.0000000000	        0.0000000000	        0.0000000000	        0.0000000000	        0.0000000000	        0.0000000000	        0.0000000000	        0.0000000000	
